<svg id="visual" viewBox="0 0 900 600" width="900" height="600" xmlns="http://www.w3.org/2000/svg" xmlns:xlink="http://www.w3.org/1999/xlink" version="1.1"><rect x="0" y="0" width="900" height="600" fill="#E5E7EB"></rect><path d="M0 127L30 140.5C60 154 120 181 180 194.2C240 207.3 300 206.7 360 192.8C420 179 480 152 540 140.2C600 128.3 660 131.7 720 138.8C780 146 840 157 870 162.5L900 168L900 0L870 0C840 0 780 0 720 0C660 0 600 0 540 0C480 0 420 0 360 0C300 0 240 0 180 0C120 0 60 0 30 0L0 0Z" fill="#8a2be2" stroke-linecap="round" stroke-linejoin="miter"></path></svg>