<svg id="visual" viewBox="0 0 900 600" width="900" height="600" xmlns="http://www.w3.org/2000/svg" xmlns:xlink="http://www.w3.org/1999/xlink" version="1.1"><rect x="0" y="0" width="900" height="600" fill="#E5E7EB"></rect><path d="M0 432L30 434.3C60 436.7 120 441.3 180 434.2C240 427 300 408 360 393.3C420 378.7 480 368.3 540 351.3C600 334.3 660 310.7 720 315.7C780 320.7 840 354.3 870 371.2L900 388L900 601L870 601C840 601 780 601 720 601C660 601 600 601 540 601C480 601 420 601 360 601C300 601 240 601 180 601C120 601 60 601 30 601L0 601Z" fill="#8a2be2" stroke-linecap="round" stroke-linejoin="miter"></path></svg>